<svg xmlns="http://www.w3.org/2000/svg">
    <symbol id="DockerHub" viewBox="0 0 24 24">
        <path d="M13.983 11.078h2.119a.186.186 0 00.186-.185V9.006a.186.186 0 00-.186-.186h-2.119a.185.185 0 00-.185.185v1.888c0 .102.083.185.185.185m-2.954-5.43h2.118a.186.186 0 00.186-.186V3.574a.186.186 0 00-.186-.185h-2.118a.185.185 0 00-.185.185v1.888c0 .102.082.185.185.185m0 2.716h2.118a.187.187 0 00.186-.186V6.29a.186.186 0 00-.186-.185h-2.118a.185.185 0 00-.185.185v1.887c0 .102.082.185.185.186m-2.93 0h2.12a.186.186 0 00.184-.186V6.29a.185.185 0 00-.185-.185H8.1a.185.185 0 00-.185.185v1.887c0 .102.083.185.185.186m-2.964 0h2.119a.186.186 0 00.185-.186V6.29a.185.185 0 00-.185-.185H5.136a.186.186 0 00-.186.185v1.887c0 .102.084.185.186.186m5.893 2.715h2.118a.186.186 0 00.186-.185V9.006a.186.186 0 00-.186-.186h-2.118a.185.185 0 00-.185.185v1.888c0 .102.082.185.185.185m-2.93 0h2.12a.185.185 0 00.184-.185V9.006a.185.185 0 00-.184-.186h-2.12a.185.185 0 00-.184.185v1.888c0 .102.083.185.185.185m-2.964 0h2.119a.185.185 0 00.185-.185V9.006a.185.185 0 00-.184-.186h-2.12a.186.186 0 00-.186.186v1.887c0 .102.084.185.186.185m-2.92 0h2.12a.185.185 0 00.184-.185V9.006a.185.185 0 00-.184-.186h-2.12a.185.185 0 00-.184.185v1.888c0 .102.082.185.185.185M23.763 9.89c-.065-.051-.672-.51-1.954-.51-.338.001-.676.03-1.01.087-.248-1.7-1.653-2.53-1.716-2.566l-.344-.199-.226.327c-.284.438-.49.922-.612 1.43-.23.97-.09 1.882.403 2.661-.595.332-1.55.413-1.744.42H.751a.751.751 0 00-.75.748 11.376 11.376 0 00.692 4.062c.545 1.428 1.355 2.48 2.41 3.124 1.18.723 3.1 1.137 5.275 1.137.983.003 1.963-.086 2.93-.266a12.248 12.248 0 003.823-1.389c.98-.567 1.86-1.288 2.61-2.136 1.252-1.418 1.998-2.997 2.553-4.4h.221c1.372 0 2.215-.549 2.68-1.009.309-.293.55-.65.707-1.046l.098-.288Z" />
    </symbol>
    <symbol id="GitHub" viewBox="0 0 24 24">
        <path d="M12 .297c-6.63 0-12 5.373-12 12 0 5.303 3.438 9.8 8.205 11.385.6.113.82-.258.82-.577 0-.285-.01-1.04-.015-2.04-3.338.724-4.042-1.61-4.042-1.61C4.422 18.07 3.633 17.7 3.633 17.7c-1.087-.744.084-.729.084-.729 1.205.084 1.838 1.236 1.838 1.236 1.07 1.835 2.809 1.305 3.495.998.108-.776.417-1.305.76-1.605-2.665-.3-5.466-1.332-5.466-5.93 0-1.31.465-2.38 1.235-3.22-.135-.303-.54-1.523.105-3.176 0 0 1.005-.322 3.3 1.23.96-.267 1.98-.399 3-.405 1.02.006 2.04.138 3 .405 2.28-1.552 3.285-1.23 3.285-1.23.645 1.653.24 2.873.12 3.176.765.84 1.23 1.91 1.23 3.22 0 4.61-2.805 5.625-5.475 5.92.42.36.81 1.096.81 2.22 0 1.606-.015 2.896-.015 3.286 0 .315.21.69.825.57C20.565 22.092 24 17.592 24 12.297c0-6.627-5.373-12-12-12" />
    </symbol>
    <symbol id="NuGet" viewBox="0 0 24 24">
        <path d="M1.998.342a1.997 1.997 0 1 0 0 3.995 1.997 1.997 0 0 0 0-3.995zm9.18 4.34a6.156 6.156 0 0 0-6.153 6.155v6.667c0 3.4 2.756 6.154 6.154 6.154h6.667c3.4 0 6.154-2.755 6.154-6.154v-6.667a6.154 6.154 0 0 0-6.154-6.155zm-1.477 2.8a2.496 2.496 0 1 1 0 4.993 2.496 2.496 0 0 1 0-4.993zm7.968 6.16a3.996 3.996 0 1 1-.002 7.992 3.996 3.996 0 0 1 .002-7.992z" />
    </symbol>
    <symbol id="Web" viewBox="0 0 24 24">
        <path d="M12 0C8.21 0 4.831 1.757 2.632 4.501l3.953 6.848A5.454 5.454 0 0 1 12 6.545h10.691A12 12 0 0 0 12 0zM1.931 5.47A11.943 11.943 0 0 0 0 12c0 6.012 4.42 10.991 10.189 11.864l3.953-6.847a5.45 5.45 0 0 1-6.865-2.29zm13.342 2.166a5.446 5.446 0 0 1 1.45 7.09l.002.001h-.002l-5.344 9.257c.206.01.413.016.621.016 6.627 0 12-5.373 12-12 0-1.54-.29-3.011-.818-4.364zM12 16.364a4.364 4.364 0 1 1 0-8.728 4.364 4.364 0 0 1 0 8.728Z" />
    </symbol>
</svg>